<svg width="64" height="64" viewBox="0 0 2048 2048" fill="none" xmlns="http://www.w3.org/2000/svg">
<path d="M0 360C0 161.177 161.177 0 360 0H1688C1886.82 0 2048 161.177 2048 360V1688C2048 1886.82 1886.82 2048 1688 2048H360C161.177 2048 0 1886.82 0 1688V360Z" fill="white"/>
<g filter="url(#filter0_i)">
<path d="M679.957 584.328C717.62 584.328 752.955 589.195 785.963 598.928C819.394 608.661 848.382 623.26 872.926 642.727C897.893 662.193 917.359 686.525 931.324 715.725C945.712 744.501 952.906 778.143 952.906 816.652C952.906 836.542 950.156 854.738 944.654 871.242C939.576 887.323 932.805 901.923 924.342 915.041C916.301 928.16 907.203 939.585 897.047 949.318C887.314 959.051 877.792 967.515 868.482 974.709C859.173 981.48 850.921 986.981 843.727 991.213C836.533 995.021 831.454 997.349 828.492 998.195C853.883 1005.39 875.253 1014.7 892.604 1026.12C909.954 1037.13 924.342 1049.4 935.768 1062.94C947.617 1076.06 956.715 1089.81 963.062 1104.2C969.833 1118.17 974.7 1131.92 977.662 1145.46C981.048 1158.58 982.952 1170.85 983.375 1182.28C984.221 1193.28 984.645 1202.17 984.645 1208.94C984.645 1241.95 980.624 1271.14 972.584 1296.54C964.544 1321.5 953.964 1343.3 940.846 1361.92C927.727 1380.11 912.704 1395.77 895.777 1408.89C878.85 1421.58 861.712 1431.95 844.361 1439.99C802.89 1459.46 756.129 1470.46 704.078 1473H495.875C471.754 1473 453.134 1468.98 440.016 1460.94C426.897 1452.48 417.376 1441.47 411.451 1427.93C405.527 1413.97 401.93 1398.31 400.66 1380.96C399.814 1363.61 399.391 1345.62 399.391 1327V729.055C399.391 710.858 399.814 693.085 400.66 675.734C401.93 658.384 405.527 642.938 411.451 629.396C417.376 615.855 426.897 605.064 440.016 597.023C453.134 588.56 471.754 584.328 495.875 584.328H679.957ZM592.359 1084.52V1323.2H685.035C704.924 1322.35 722.698 1317.69 738.355 1309.23C745.126 1305.85 751.686 1301.4 758.033 1295.9C764.381 1290.4 770.094 1283.63 775.172 1275.59C780.25 1267.12 784.27 1257.6 787.232 1247.02C790.195 1236.02 791.676 1223.33 791.676 1208.94C791.676 1193.28 789.983 1179.74 786.598 1168.31C783.635 1156.46 779.404 1146.31 773.902 1137.84C768.824 1128.96 762.9 1121.55 756.129 1115.63C749.358 1109.28 742.587 1104.2 735.816 1100.39C719.312 1091.51 700.693 1086.22 679.957 1084.52H592.359ZM592.359 734.133V949.953H673.609C691.806 949.107 708.098 944.875 722.486 937.258C728.411 934.296 734.335 930.275 740.26 925.197C746.184 920.119 751.474 914.195 756.129 907.424C760.784 900.23 764.381 891.766 766.92 882.033C769.882 872.3 771.363 861.086 771.363 848.391C771.363 834.003 769.882 821.519 766.92 810.939C763.958 799.937 759.938 790.627 754.859 783.01C750.204 774.969 744.703 768.199 738.355 762.697C732.431 757.196 726.295 752.541 719.947 748.732C704.713 740.692 687.574 735.826 668.531 734.133H592.359ZM1380.74 584.328C1418.4 584.328 1453.74 589.195 1486.74 598.928C1520.18 608.661 1549.16 623.26 1573.71 642.727C1598.67 662.193 1618.14 686.525 1632.11 715.725C1646.49 744.501 1653.69 778.143 1653.69 816.652C1653.69 836.542 1650.94 854.738 1645.44 871.242C1640.36 887.323 1633.59 901.923 1625.12 915.041C1617.08 928.16 1607.98 939.585 1597.83 949.318C1588.1 959.051 1578.57 967.515 1569.26 974.709C1559.95 981.48 1551.7 986.981 1544.51 991.213C1537.31 995.021 1532.24 997.349 1529.27 998.195C1554.66 1005.39 1576.03 1014.7 1593.38 1026.12C1610.74 1037.13 1625.12 1049.4 1636.55 1062.94C1648.4 1076.06 1657.5 1089.81 1663.84 1104.2C1670.61 1118.17 1675.48 1131.92 1678.44 1145.46C1681.83 1158.58 1683.73 1170.85 1684.16 1182.28C1685 1193.28 1685.43 1202.17 1685.43 1208.94C1685.43 1241.95 1681.41 1271.14 1673.37 1296.54C1665.32 1321.5 1654.75 1343.3 1641.63 1361.92C1628.51 1380.11 1613.49 1395.77 1596.56 1408.89C1579.63 1421.58 1562.49 1431.95 1545.14 1439.99C1503.67 1459.46 1456.91 1470.46 1404.86 1473H1196.66C1172.54 1473 1153.92 1468.98 1140.8 1460.94C1127.68 1452.48 1118.16 1441.47 1112.23 1427.93C1106.31 1413.97 1102.71 1398.31 1101.44 1380.96C1100.6 1363.61 1100.17 1345.62 1100.17 1327V729.055C1100.17 710.858 1100.6 693.085 1101.44 675.734C1102.71 658.384 1106.31 642.938 1112.23 629.396C1118.16 615.855 1127.68 605.064 1140.8 597.023C1153.92 588.56 1172.54 584.328 1196.66 584.328H1380.74ZM1293.14 1084.52V1323.2H1385.82C1405.71 1322.35 1423.48 1317.69 1439.14 1309.23C1445.91 1305.85 1452.47 1301.4 1458.81 1295.9C1465.16 1290.4 1470.88 1283.63 1475.95 1275.59C1481.03 1267.12 1485.05 1257.6 1488.01 1247.02C1490.98 1236.02 1492.46 1223.33 1492.46 1208.94C1492.46 1193.28 1490.76 1179.74 1487.38 1168.31C1484.42 1156.46 1480.18 1146.31 1474.68 1137.84C1469.61 1128.96 1463.68 1121.55 1456.91 1115.63C1450.14 1109.28 1443.37 1104.2 1436.6 1100.39C1420.09 1091.51 1401.47 1086.22 1380.74 1084.52H1293.14ZM1293.14 734.133V949.953H1374.39C1392.59 949.107 1408.88 944.875 1423.27 937.258C1429.19 934.296 1435.12 930.275 1441.04 925.197C1446.97 920.119 1452.26 914.195 1456.91 907.424C1461.57 900.23 1465.16 891.766 1467.7 882.033C1470.66 872.3 1472.14 861.086 1472.14 848.391C1472.14 834.003 1470.66 821.519 1467.7 810.939C1464.74 799.937 1460.72 790.627 1455.64 783.01C1450.99 774.969 1445.48 768.199 1439.14 762.697C1433.21 757.196 1427.08 752.541 1420.73 748.732C1405.49 740.692 1388.36 735.826 1369.31 734.133H1293.14Z" fill="#2ECC71"/>
</g>
<defs>
<filter id="filter0_i" x="399.391" y="584.328" width="1286.04" height="894.672" filterUnits="userSpaceOnUse" color-interpolation-filters="sRGB">
<feFlood flood-opacity="0" result="BackgroundImageFix"/>
<feBlend mode="normal" in="SourceGraphic" in2="BackgroundImageFix" result="shape"/>
<feColorMatrix in="SourceAlpha" type="matrix" values="0 0 0 0 0 0 0 0 0 0 0 0 0 0 0 0 0 0 127 0" result="hardAlpha"/>
<feOffset dy="6"/>
<feGaussianBlur stdDeviation="3"/>
<feComposite in2="hardAlpha" operator="arithmetic" k2="-1" k3="1"/>
<feColorMatrix type="matrix" values="0 0 0 0 0.132606 0 0 0 0 0.532751 0 0 0 0 0.302288 0 0 0 1 0"/>
<feBlend mode="normal" in2="shape" result="effect1_innerShadow"/>
</filter>
</defs>
</svg>
