<svg width="44" height="33" viewBox="0 0 44 33" fill="none" xmlns="http://www.w3.org/2000/svg">
<g filter="url(#filter0_i)">
<path d="M10.2747 0.328125C11.6309 0.328125 12.9033 0.503363 14.0919 0.853839C15.2957 1.20432 16.3395 1.73003 17.2233 2.43098C18.1224 3.13193 18.8233 4.00812 19.3262 5.05955C19.8443 6.09574 20.1033 7.30717 20.1033 8.69384C20.1033 9.41003 20.0043 10.0653 19.8062 10.6596C19.6233 11.2386 19.3795 11.7643 19.0747 12.2367C18.7852 12.7091 18.4576 13.1205 18.0919 13.471C17.7414 13.8215 17.3985 14.1262 17.0633 14.3853C16.7281 14.6291 16.4309 14.8272 16.1719 14.9796C15.9128 15.1167 15.73 15.2005 15.6233 15.231C16.5376 15.49 17.3071 15.8253 17.9319 16.2367C18.5566 16.6329 19.0747 17.0748 19.4862 17.5624C19.9128 18.0348 20.2404 18.53 20.469 19.0481C20.7128 19.551 20.8881 20.0462 20.9947 20.5338C21.1166 21.0062 21.1852 21.4481 21.2004 21.8596C21.2309 22.2557 21.2462 22.5757 21.2462 22.8196C21.2462 24.0081 21.1014 25.0596 20.8119 25.9738C20.5224 26.8729 20.1414 27.6576 19.669 28.3281C19.1966 28.9834 18.6557 29.5472 18.0462 30.0196C17.4366 30.4767 16.8195 30.85 16.1947 31.1396C14.7014 31.8405 13.0176 32.2367 11.1433 32.3281H3.64616C2.77759 32.3281 2.10711 32.1834 1.63473 31.8938C1.16235 31.5891 0.819494 31.1929 0.606161 30.7053C0.392827 30.2024 0.263304 29.6386 0.217589 29.0138C0.187113 28.3891 0.171875 27.7415 0.171875 27.071V5.53955C0.171875 4.88432 0.187113 4.24432 0.217589 3.61955C0.263304 2.99479 0.392827 2.4386 0.606161 1.95098C0.819494 1.46336 1.16235 1.07479 1.63473 0.785268C2.10711 0.480506 2.77759 0.328125 3.64616 0.328125H10.2747ZM7.12045 18.3396V26.9338H10.4576C11.1738 26.9034 11.8138 26.7357 12.3776 26.431C12.6214 26.3091 12.8576 26.1491 13.0862 25.951C13.3147 25.7529 13.5204 25.5091 13.7033 25.2196C13.8862 24.9148 14.0309 24.5719 14.1376 24.191C14.2443 23.7948 14.2976 23.3376 14.2976 22.8196C14.2976 22.2557 14.2366 21.7681 14.1147 21.3567C14.0081 20.93 13.8557 20.5643 13.6576 20.2596C13.4747 19.9396 13.2614 19.6729 13.0176 19.4596C12.7738 19.231 12.53 19.0481 12.2862 18.911C11.6919 18.591 11.0214 18.4005 10.2747 18.3396H7.12045ZM7.12045 5.72241V13.4938H10.0462C10.7014 13.4634 11.2881 13.311 11.8062 13.0367C12.0195 12.93 12.2328 12.7853 12.4462 12.6024C12.6595 12.4196 12.85 12.2062 13.0176 11.9624C13.1852 11.7034 13.3147 11.3986 13.4062 11.0481C13.5128 10.6976 13.5662 10.2938 13.5662 9.8367C13.5662 9.3186 13.5128 8.86908 13.4062 8.48812C13.2995 8.09193 13.1547 7.7567 12.9719 7.48241C12.8043 7.19289 12.6062 6.94908 12.3776 6.75098C12.1643 6.55289 11.9433 6.38527 11.7147 6.24812C11.1662 5.9586 10.549 5.78336 9.8633 5.72241H7.12045Z" fill="#2ECC71"/>
<path d="M32.4663 0.328125C33.8225 0.328125 35.0948 0.503363 36.2834 0.853839C37.4872 1.20432 38.531 1.73003 39.4148 2.43098C40.3139 3.13193 41.0148 4.00812 41.5177 5.05955C42.0358 6.09574 42.2948 7.30717 42.2948 8.69384C42.2948 9.41003 42.1958 10.0653 41.9977 10.6596C41.8148 11.2386 41.571 11.7643 41.2663 12.2367C40.9767 12.7091 40.6491 13.1205 40.2834 13.471C39.9329 13.8215 39.5901 14.1262 39.2548 14.3853C38.9196 14.6291 38.6225 14.8272 38.3634 14.9796C38.1044 15.1167 37.9215 15.2005 37.8148 15.231C38.7291 15.49 39.4987 15.8253 40.1234 16.2367C40.7482 16.6329 41.2663 17.0748 41.6777 17.5624C42.1044 18.0348 42.432 18.53 42.6606 19.0481C42.9044 19.551 43.0796 20.0462 43.1863 20.5338C43.3082 21.0062 43.3767 21.4481 43.392 21.8596C43.4225 22.2557 43.4377 22.5757 43.4377 22.8196C43.4377 24.0081 43.2929 25.0596 43.0034 25.9738C42.7139 26.8729 42.3329 27.6576 41.8606 28.3281C41.3882 28.9834 40.8472 29.5472 40.2377 30.0196C39.6282 30.4767 39.011 30.85 38.3863 31.1396C36.8929 31.8405 35.2091 32.2367 33.3348 32.3281H25.8377C24.9691 32.3281 24.2987 32.1834 23.8263 31.8938C23.3539 31.5891 23.011 31.1929 22.7977 30.7053C22.5844 30.2024 22.4548 29.6386 22.4091 29.0138C22.3787 28.3891 22.3634 27.7415 22.3634 27.071V5.53955C22.3634 4.88432 22.3787 4.24432 22.4091 3.61955C22.4548 2.99479 22.5844 2.4386 22.7977 1.95098C23.011 1.46336 23.3539 1.07479 23.8263 0.785268C24.2987 0.480506 24.9691 0.328125 25.8377 0.328125H32.4663ZM29.312 18.3396V26.9338H32.6491C33.3653 26.9034 34.0053 26.7357 34.5691 26.431C34.8129 26.3091 35.0491 26.1491 35.2777 25.951C35.5063 25.7529 35.712 25.5091 35.8948 25.2196C36.0777 24.9148 36.2225 24.5719 36.3291 24.191C36.4358 23.7948 36.4891 23.3376 36.4891 22.8196C36.4891 22.2557 36.4282 21.7681 36.3063 21.3567C36.1996 20.93 36.0472 20.5643 35.8491 20.2596C35.6663 19.9396 35.4529 19.6729 35.2091 19.4596C34.9653 19.231 34.7215 19.0481 34.4777 18.911C33.8834 18.591 33.2129 18.4005 32.4663 18.3396H29.312ZM29.312 5.72241V13.4938H32.2377C32.8929 13.4634 33.4796 13.311 33.9977 13.0367C34.211 12.93 34.4244 12.7853 34.6377 12.6024C34.851 12.4196 35.0415 12.2062 35.2091 11.9624C35.3768 11.7034 35.5063 11.3986 35.5977 11.0481C35.7044 10.6976 35.7577 10.2938 35.7577 9.8367C35.7577 9.3186 35.7044 8.86908 35.5977 8.48812C35.491 8.09193 35.3463 7.7567 35.1634 7.48241C34.9958 7.19289 34.7977 6.94908 34.5691 6.75098C34.3558 6.55289 34.1348 6.38527 33.9063 6.24812C33.3577 5.9586 32.7406 5.78336 32.0548 5.72241H29.312Z" fill="#2ECC71"/>
</g>
<defs>
<filter id="filter0_i" x="0.171875" y="0.328125" width="43.2658" height="33" filterUnits="userSpaceOnUse" color-interpolation-filters="sRGB">
<feFlood flood-opacity="0" result="BackgroundImageFix"/>
<feBlend mode="normal" in="SourceGraphic" in2="BackgroundImageFix" result="shape"/>
<feColorMatrix in="SourceAlpha" type="matrix" values="0 0 0 0 0 0 0 0 0 0 0 0 0 0 0 0 0 0 127 0" result="hardAlpha"/>
<feOffset dy="1"/>
<feGaussianBlur stdDeviation="0.5"/>
<feComposite in2="hardAlpha" operator="arithmetic" k2="-1" k3="1"/>
<feColorMatrix type="matrix" values="0 0 0 0 0 0 0 0 0 0 0 0 0 0 0 0 0 0 0.1 0"/>
<feBlend mode="normal" in2="shape" result="effect1_innerShadow"/>
</filter>
</defs>
</svg>
